<svg xmlns="http://www.w3.org/2000/svg" viewBox="0 0 372.72 394.33"><defs><style>.cls-1{isolation:isolate;}.cls-2{fill:#4b256e;opacity:0.37;}.cls-3{opacity:0.59;}.cls-4{fill:#4d2c69;}.cls-10,.cls-5{fill:#591c57;}.cls-6{fill:#815088;}.cls-7{fill:#9b77a1;}.cls-8{fill:#e6e1e6;}.cls-9{fill:#ba8db3;}.cls-10{opacity:0.32;}.cls-10,.cls-21,.cls-23{mix-blend-mode:multiply;}.cls-11{fill:#512f66;}.cls-12{fill:#c68b5c;}.cls-13{fill:#e5be84;}.cls-14{fill:#ebd1b8;}.cls-15{fill:#f7efe6;}.cls-16{fill:#454349;}.cls-17{fill:#efa77c;}.cls-18{fill:#f6b896;}.cls-19{fill:#fff;}.cls-20{fill:#ef9721;}.cls-21,.cls-24{fill:#4a556d;}.cls-21{opacity:0.55;}.cls-22{fill:#faa92e;}.cls-23{fill:#cba92c;opacity:0.5;}</style></defs><title>Asset 1</title><g class="cls-1"><g id="Layer_2" data-name="Layer 2"><g id="Layer_1-2" data-name="Layer 1"><path class="cls-2" d="M366.51,37v7.38H335.17V1H275.91V20.64H207.76V45.85h-4.82V1H143.68V20.64H117.52V0H47.32V44.39H6.22V37H0V354.75H6.22V340.63h75v14.12h6.22V294H285.27v60.73h6.21V340.63h75v14.12h6.21V37Zm0,241.85H351.42V251.5H322.57V214.34H291.48V200.7h75ZM195.18,222.54v11H146.24V208.3H87.46v-7.6H285.27v13.64h-47v8.2H195.18Zm90.09-116.18v24h-45.4v9.81H199V115H112V110.9H87.46v-4.54Zm11.05,24h-4.84v-24h75v79.18H312V130.38Zm-215.08-24v4.54H39.89v74.64H6.22V106.36Zm0,94.34v7.6H54v70.56H6.22V200.7Zm269-109.51V53h16.29V91.19ZM25.19,53V91.19h-19V53ZM81.24,332h-75V294h75Zm210.24,0V294h75v38Z"/><g class="cls-3"><rect class="cls-4" x="285.27" y="37.01" width="6.22" height="317.75"/><rect class="cls-4" x="366.51" y="37.01" width="6.22" height="317.75"/><rect class="cls-4" x="288.37" y="44.39" width="81.24" height="8.62"/><rect class="cls-4" x="288.37" y="188.2" width="81.24" height="8.62"/><rect class="cls-4" x="288.37" y="332" width="81.24" height="8.62"/><rect class="cls-5" x="238.27" y="214.34" width="66.02" height="64.51"/><rect class="cls-6" x="257.13" y="214.34" width="65.44" height="64.51"/><rect class="cls-7" x="284.64" y="214.34" width="10.42" height="16.6"/><rect class="cls-7" x="284.64" y="262.26" width="10.42" height="16.6"/><rect class="cls-8" x="300.97" y="265.63" width="16.98" height="10.26"/><rect class="cls-9" x="301.74" y="267.07" width="1.8" height="7.38"/><rect class="cls-9" x="304.64" y="267.07" width="0.63" height="7.38"/><rect class="cls-9" x="307.86" y="267.07" width="1.48" height="7.38"/><rect class="cls-9" x="306" y="267.07" width="0.9" height="7.38"/><rect class="cls-9" x="310.44" y="267.07" width="0.61" height="7.38"/><rect class="cls-9" x="313.33" y="267.07" width="1.22" height="7.38"/><rect class="cls-9" x="314.97" y="267.07" width="0.61" height="7.38"/><rect class="cls-9" x="311.94" y="267.07" width="0.84" height="7.38"/><rect class="cls-9" x="316.22" y="267.07" width="0.9" height="7.38"/><rect class="cls-10" x="238.27" y="244.58" width="84.31" height="34.28"/><rect class="cls-5" x="275.91" y="1.03" width="46.41" height="45.35"/><rect class="cls-6" x="289.17" y="1.03" width="46" height="45.35"/><rect class="cls-7" x="308.51" y="1.03" width="7.33" height="11.67"/><rect class="cls-7" x="308.51" y="34.71" width="7.33" height="11.67"/><rect class="cls-8" x="319.98" y="37.08" width="11.93" height="7.21"/><rect class="cls-9" x="320.53" y="38.09" width="1.27" height="5.19"/><rect class="cls-9" x="322.56" y="38.09" width="0.44" height="5.19"/><rect class="cls-9" x="324.83" y="38.09" width="1.04" height="5.19"/><rect class="cls-9" x="323.52" y="38.09" width="0.63" height="5.19"/><rect class="cls-9" x="326.64" y="38.09" width="0.43" height="5.19"/><rect class="cls-9" x="328.67" y="38.09" width="0.86" height="5.19"/><rect class="cls-9" x="329.82" y="38.09" width="0.43" height="5.19"/><rect class="cls-9" x="327.7" y="38.09" width="0.59" height="5.19"/><rect class="cls-9" x="330.71" y="38.09" width="0.63" height="5.19"/><rect class="cls-5" x="292.16" y="251.5" width="46.41" height="27.36"/><rect class="cls-6" x="305.42" y="251.5" width="46" height="27.36"/><rect class="cls-7" x="322.25" y="251.5" width="12.34" height="8.11"/><rect class="cls-8" x="307.63" y="269.56" width="11.93" height="7.21"/><rect class="cls-9" x="308.17" y="270.57" width="1.27" height="5.19"/><rect class="cls-9" x="310.21" y="270.57" width="0.44" height="5.19"/><rect class="cls-9" x="312.47" y="270.57" width="1.04" height="5.19"/><rect class="cls-9" x="311.16" y="270.57" width="0.63" height="5.19"/><rect class="cls-9" x="314.29" y="270.57" width="0.43" height="5.19"/><rect class="cls-9" x="316.32" y="270.57" width="0.86" height="5.19"/><rect class="cls-9" x="317.47" y="270.57" width="0.43" height="5.19"/><rect class="cls-9" x="315.34" y="270.57" width="0.59" height="5.19"/><rect class="cls-9" x="318.35" y="270.57" width="0.63" height="5.19"/><rect class="cls-5" x="290.96" y="45.85" width="46.41" height="45.35"/><rect class="cls-6" x="304.22" y="45.85" width="46" height="45.35"/><rect class="cls-7" x="321.05" y="45.85" width="12.34" height="11.67"/><rect class="cls-7" x="321.05" y="79.53" width="12.34" height="11.67"/><rect class="cls-8" x="306.42" y="81.9" width="11.93" height="7.21"/><rect class="cls-9" x="306.97" y="82.91" width="1.27" height="5.19"/><rect class="cls-9" x="309" y="82.91" width="0.44" height="5.19"/><rect class="cls-9" x="311.27" y="82.91" width="1.04" height="5.19"/><rect class="cls-9" x="309.96" y="82.91" width="0.63" height="5.19"/><rect class="cls-9" x="313.08" y="82.91" width="0.43" height="5.19"/><rect class="cls-9" x="315.11" y="82.91" width="0.86" height="5.19"/><rect class="cls-9" x="316.26" y="82.91" width="0.43" height="5.19"/><rect class="cls-9" x="314.14" y="82.91" width="0.59" height="5.19"/><rect class="cls-9" x="317.14" y="82.91" width="0.63" height="5.19"/><rect class="cls-5" x="207.76" y="20.64" width="72.2" height="70.55"/><rect class="cls-6" x="228.39" y="20.64" width="71.57" height="70.55"/><rect class="cls-7" x="254.57" y="20.64" width="19.2" height="18.15"/><rect class="cls-7" x="254.57" y="73.04" width="19.2" height="18.15"/><rect class="cls-8" x="231.82" y="76.73" width="18.57" height="11.22"/><rect class="cls-9" x="232.67" y="78.3" width="1.97" height="8.07"/><rect class="cls-9" x="235.84" y="78.3" width="0.69" height="8.07"/><rect class="cls-9" x="239.36" y="78.3" width="1.62" height="8.07"/><rect class="cls-9" x="237.32" y="78.3" width="0.99" height="8.07"/><rect class="cls-9" x="242.18" y="78.3" width="0.67" height="8.07"/><rect class="cls-9" x="245.34" y="78.3" width="1.34" height="8.07"/><rect class="cls-9" x="247.13" y="78.3" width="0.66" height="8.07"/><rect class="cls-9" x="243.82" y="78.3" width="0.92" height="8.07"/><rect class="cls-9" x="248.5" y="78.3" width="0.99" height="8.07"/><rect class="cls-5" x="195.18" y="222.54" width="57.64" height="56.32"/><rect class="cls-6" x="211.65" y="222.54" width="57.13" height="56.32"/><rect class="cls-7" x="235.66" y="222.54" width="9.1" height="14.49"/><rect class="cls-7" x="235.66" y="264.36" width="9.1" height="14.49"/><rect class="cls-8" x="249.92" y="267.31" width="14.82" height="8.95"/><rect class="cls-9" x="250.59" y="268.56" width="1.57" height="6.44"/><rect class="cls-9" x="253.12" y="268.56" width="0.55" height="6.44"/><rect class="cls-9" x="255.93" y="268.56" width="1.29" height="6.44"/><rect class="cls-9" x="254.31" y="268.56" width="0.79" height="6.44"/><rect class="cls-9" x="258.19" y="268.56" width="0.53" height="6.44"/><rect class="cls-9" x="260.71" y="268.56" width="1.07" height="6.44"/><rect class="cls-9" x="262.14" y="268.56" width="0.53" height="6.44"/><rect class="cls-9" x="259.5" y="268.56" width="0.73" height="6.44"/><rect class="cls-9" x="263.23" y="268.56" width="0.79" height="6.44"/><rect class="cls-5" x="137.24" y="233.51" width="46.41" height="45.35"/><rect class="cls-6" x="150.5" y="233.51" width="46" height="45.35"/><rect class="cls-7" x="167.33" y="233.51" width="12.34" height="11.67"/><rect class="cls-7" x="167.33" y="267.19" width="12.34" height="11.67"/><rect class="cls-8" x="152.7" y="269.56" width="11.93" height="7.21"/><rect class="cls-9" x="153.25" y="270.57" width="1.27" height="5.19"/><rect class="cls-9" x="155.29" y="270.57" width="0.44" height="5.19"/><rect class="cls-9" x="157.55" y="270.57" width="1.04" height="5.19"/><rect class="cls-9" x="156.24" y="270.57" width="0.63" height="5.19"/><rect class="cls-9" x="159.36" y="270.57" width="0.43" height="5.19"/><rect class="cls-9" x="161.39" y="270.57" width="0.86" height="5.19"/><rect class="cls-9" x="162.55" y="270.57" width="0.43" height="5.19"/><rect class="cls-9" x="160.42" y="270.57" width="0.59" height="5.19"/><rect class="cls-9" x="163.43" y="270.57" width="0.63" height="5.19"/><rect class="cls-5" x="54.04" y="208.3" width="72.2" height="70.55"/><rect class="cls-6" x="74.67" y="208.3" width="71.57" height="70.55"/><rect class="cls-7" x="100.86" y="208.3" width="19.2" height="18.15"/><rect class="cls-7" x="100.86" y="260.7" width="19.2" height="18.15"/><rect class="cls-8" x="78.1" y="264.39" width="18.57" height="11.22"/><rect class="cls-9" x="78.95" y="265.96" width="1.97" height="8.07"/><rect class="cls-9" x="82.12" y="265.96" width="0.69" height="8.07"/><rect class="cls-9" x="85.64" y="265.96" width="1.62" height="8.07"/><rect class="cls-9" x="83.6" y="265.96" width="0.99" height="8.07"/><rect class="cls-9" x="88.46" y="265.96" width="0.67" height="8.07"/><rect class="cls-9" x="91.62" y="265.96" width="1.34" height="8.07"/><rect class="cls-9" x="93.41" y="265.96" width="0.66" height="8.07"/><rect class="cls-9" x="90.11" y="265.96" width="0.92" height="8.07"/><rect class="cls-9" x="94.79" y="265.96" width="0.99" height="8.07"/><rect class="cls-5" x="47.32" width="54.98" height="53.72"/><rect class="cls-6" x="63.03" width="54.49" height="53.72"/><rect class="cls-7" x="82.96" width="14.62" height="13.82"/><rect class="cls-7" x="82.96" y="39.9" width="14.62" height="13.82"/><rect class="cls-8" x="65.64" y="42.71" width="14.14" height="8.54"/><rect class="cls-9" x="66.28" y="43.9" width="1.5" height="6.15"/><rect class="cls-9" x="68.69" y="43.9" width="0.53" height="6.15"/><rect class="cls-9" x="71.38" y="43.9" width="1.23" height="6.15"/><rect class="cls-9" x="69.83" y="43.9" width="0.75" height="6.15"/><rect class="cls-9" x="73.53" y="43.9" width="0.51" height="6.15"/><rect class="cls-9" x="75.93" y="43.9" width="1.02" height="6.15"/><rect class="cls-9" x="77.29" y="43.9" width="0.51" height="6.15"/><rect class="cls-9" x="74.78" y="43.9" width="0.7" height="6.15"/><rect class="cls-9" x="78.34" y="43.9" width="0.75" height="6.15"/><rect class="cls-10" x="66.81" y="13.18" width="50.71" height="40.55"/><rect class="cls-5" x="143.68" y="1.03" width="46.41" height="45.35"/><rect class="cls-6" x="156.94" y="1.03" width="46" height="45.35"/><rect class="cls-7" x="176.27" y="1.03" width="7.33" height="11.67"/><rect class="cls-7" x="176.27" y="34.71" width="7.33" height="11.67"/><rect class="cls-8" x="187.75" y="37.08" width="11.93" height="7.21"/><rect class="cls-9" x="188.3" y="38.09" width="1.27" height="5.19"/><rect class="cls-9" x="190.33" y="38.09" width="0.44" height="5.19"/><rect class="cls-9" x="192.59" y="38.09" width="1.04" height="5.19"/><rect class="cls-9" x="191.29" y="38.09" width="0.63" height="5.19"/><rect class="cls-9" x="194.41" y="38.09" width="0.43" height="5.19"/><rect class="cls-9" x="196.44" y="38.09" width="0.86" height="5.19"/><rect class="cls-9" x="197.59" y="38.09" width="0.43" height="5.19"/><rect class="cls-9" x="195.47" y="38.09" width="0.59" height="5.19"/><rect class="cls-9" x="198.47" y="38.09" width="0.63" height="5.19"/><rect class="cls-5" x="158.73" y="45.85" width="46.41" height="45.35"/><rect class="cls-6" x="171.99" y="45.85" width="46" height="45.35"/><rect class="cls-7" x="188.81" y="45.85" width="12.34" height="11.67"/><rect class="cls-7" x="188.81" y="79.53" width="12.34" height="11.67"/><rect class="cls-8" x="174.19" y="81.9" width="11.93" height="7.21"/><rect class="cls-9" x="174.74" y="82.91" width="1.27" height="5.19"/><rect class="cls-9" x="176.77" y="82.91" width="0.44" height="5.19"/><rect class="cls-9" x="179.03" y="82.91" width="1.04" height="5.19"/><rect class="cls-9" x="177.73" y="82.91" width="0.63" height="5.19"/><rect class="cls-9" x="180.85" y="82.91" width="0.43" height="5.19"/><rect class="cls-9" x="182.88" y="82.91" width="0.86" height="5.19"/><rect class="cls-9" x="184.03" y="82.91" width="0.43" height="5.19"/><rect class="cls-9" x="181.9" y="82.91" width="0.59" height="5.19"/><rect class="cls-9" x="184.91" y="82.91" width="0.63" height="5.19"/><rect class="cls-5" x="75.53" y="20.64" width="72.2" height="70.55"/><rect class="cls-6" x="96.16" y="20.64" width="71.57" height="70.55"/><rect class="cls-7" x="122.34" y="20.64" width="19.2" height="18.15"/><rect class="cls-7" x="122.34" y="73.04" width="19.2" height="18.15"/><rect class="cls-8" x="99.59" y="76.73" width="18.57" height="11.22"/><rect class="cls-9" x="100.44" y="78.3" width="1.97" height="8.07"/><rect class="cls-9" x="103.6" y="78.3" width="0.69" height="8.07"/><rect class="cls-9" x="107.12" y="78.3" width="1.62" height="8.07"/><rect class="cls-9" x="105.09" y="78.3" width="0.99" height="8.07"/><rect class="cls-9" x="109.95" y="78.3" width="0.67" height="8.07"/><rect class="cls-9" x="113.1" y="78.3" width="1.34" height="8.07"/><rect class="cls-9" x="114.9" y="78.3" width="0.66" height="8.07"/><rect class="cls-9" x="111.59" y="78.3" width="0.92" height="8.07"/><rect class="cls-9" x="116.27" y="78.3" width="0.99" height="8.07"/><rect class="cls-5" x="239.87" y="130.38" width="56.45" height="55.16"/><rect class="cls-6" x="256" y="130.38" width="55.95" height="55.16"/><rect class="cls-7" x="276.47" y="130.38" width="15.01" height="14.19"/><rect class="cls-7" x="276.47" y="171.34" width="15.01" height="14.19"/><rect class="cls-8" x="258.68" y="174.23" width="14.52" height="8.77"/><rect class="cls-9" x="259.34" y="175.46" width="1.54" height="6.31"/><rect class="cls-9" x="261.82" y="175.46" width="0.54" height="6.31"/><rect class="cls-9" x="264.57" y="175.46" width="1.26" height="6.31"/><rect class="cls-9" x="262.98" y="175.46" width="0.77" height="6.31"/><rect class="cls-9" x="266.78" y="175.46" width="0.52" height="6.31"/><rect class="cls-9" x="269.25" y="175.46" width="1.04" height="6.31"/><rect class="cls-9" x="270.65" y="175.46" width="0.52" height="6.31"/><rect class="cls-9" x="268.06" y="175.46" width="0.72" height="6.31"/><rect class="cls-9" x="271.72" y="175.46" width="0.77" height="6.31"/><rect class="cls-5" x="39.89" y="110.9" width="56.45" height="74.64"/><rect class="cls-6" x="56.02" y="110.9" width="55.95" height="74.64"/><rect class="cls-7" x="76.49" y="110.9" width="15.01" height="14.19"/><rect class="cls-7" x="76.49" y="171.34" width="15.01" height="14.19"/><rect class="cls-8" x="58.7" y="174.23" width="14.52" height="8.77"/><rect class="cls-9" x="59.36" y="175.46" width="1.54" height="6.31"/><rect class="cls-9" x="61.84" y="175.46" width="0.54" height="6.31"/><rect class="cls-9" x="64.59" y="175.46" width="1.26" height="6.31"/><rect class="cls-9" x="63" y="175.46" width="0.77" height="6.31"/><rect class="cls-9" x="66.8" y="175.46" width="0.52" height="6.31"/><rect class="cls-9" x="69.27" y="175.46" width="1.04" height="6.31"/><rect class="cls-9" x="70.67" y="175.46" width="0.52" height="6.31"/><rect class="cls-9" x="68.08" y="175.46" width="0.72" height="6.31"/><rect class="cls-9" x="71.74" y="175.46" width="0.77" height="6.31"/><rect class="cls-10" x="91.95" y="110.9" width="20.02" height="74.64"/><rect class="cls-5" x="190.01" y="140.19" width="46.41" height="45.35"/><rect class="cls-6" x="203.27" y="140.19" width="46" height="45.35"/><rect class="cls-7" x="220.1" y="140.19" width="12.34" height="11.67"/><rect class="cls-7" x="220.1" y="173.87" width="12.34" height="11.67"/><rect class="cls-8" x="205.48" y="176.24" width="11.93" height="7.21"/><rect class="cls-9" x="206.02" y="177.25" width="1.27" height="5.19"/><rect class="cls-9" x="208.06" y="177.25" width="0.44" height="5.19"/><rect class="cls-9" x="210.32" y="177.25" width="1.04" height="5.19"/><rect class="cls-9" x="209.01" y="177.25" width="0.63" height="5.19"/><rect class="cls-9" x="212.13" y="177.25" width="0.43" height="5.19"/><rect class="cls-9" x="214.16" y="177.25" width="0.86" height="5.19"/><rect class="cls-9" x="215.32" y="177.25" width="0.43" height="5.19"/><rect class="cls-9" x="213.19" y="177.25" width="0.59" height="5.19"/><rect class="cls-9" x="216.2" y="177.25" width="0.63" height="5.19"/><rect class="cls-5" x="106.81" y="114.98" width="72.2" height="70.55"/><rect class="cls-6" x="127.44" y="114.98" width="71.57" height="70.55"/><rect class="cls-7" x="153.63" y="114.98" width="19.2" height="18.15"/><rect class="cls-7" x="153.63" y="167.38" width="19.2" height="18.15"/><rect class="cls-8" x="130.87" y="171.07" width="18.57" height="11.22"/><rect class="cls-9" x="131.72" y="172.64" width="1.97" height="8.07"/><rect class="cls-9" x="134.89" y="172.64" width="0.69" height="8.07"/><rect class="cls-9" x="138.41" y="172.64" width="1.62" height="8.07"/><rect class="cls-9" x="136.37" y="172.64" width="0.99" height="8.07"/><rect class="cls-9" x="141.23" y="172.64" width="0.67" height="8.07"/><rect class="cls-9" x="144.39" y="172.64" width="1.34" height="8.07"/><rect class="cls-9" x="146.18" y="172.64" width="0.66" height="8.07"/><rect class="cls-9" x="142.88" y="172.64" width="0.92" height="8.07"/><rect class="cls-9" x="147.56" y="172.64" width="0.99" height="8.07"/><rect class="cls-5" x="25.19" y="45.85" width="46.41" height="45.35"/><rect class="cls-6" x="38.45" y="45.85" width="46" height="45.35"/><rect class="cls-7" x="55.28" y="45.85" width="12.34" height="11.67"/><rect class="cls-7" x="55.28" y="79.53" width="12.34" height="11.67"/><rect class="cls-8" x="40.66" y="81.9" width="11.93" height="7.21"/><rect class="cls-9" x="41.2" y="82.91" width="1.27" height="5.19"/><rect class="cls-9" x="43.24" y="82.91" width="0.44" height="5.19"/><rect class="cls-9" x="45.5" y="82.91" width="1.04" height="5.19"/><rect class="cls-9" x="44.19" y="82.91" width="0.63" height="5.19"/><rect class="cls-9" x="47.32" y="82.91" width="0.43" height="5.19"/><rect class="cls-9" x="49.35" y="82.91" width="0.86" height="5.19"/><rect class="cls-9" x="50.5" y="82.91" width="0.43" height="5.19"/><rect class="cls-9" x="48.37" y="82.91" width="0.59" height="5.19"/><rect class="cls-9" x="51.38" y="82.91" width="0.63" height="5.19"/><rect class="cls-10" x="71.82" y="45.85" width="12.63" height="45.35"/><rect class="cls-11" x="3.11" y="91.19" width="363.4" height="15.16"/><rect class="cls-11" x="3.11" y="185.54" width="363.4" height="15.16"/><rect class="cls-11" x="3.11" y="278.86" width="363.4" height="15.16"/><rect class="cls-4" y="37.01" width="6.22" height="317.75"/><rect class="cls-4" x="81.24" y="37.01" width="6.22" height="317.75"/><rect class="cls-4" x="3.11" y="44.39" width="81.24" height="8.62"/><rect class="cls-4" x="3.11" y="332" width="81.24" height="8.62"/></g><rect class="cls-12" x="182" y="269.93" width="54.75" height="79.54"/><rect class="cls-13" x="200.64" y="269.93" width="54.17" height="79.54"/><rect class="cls-14" x="224.29" y="269.93" width="12.71" height="16.4"/><rect class="cls-14" x="224.29" y="333.07" width="12.71" height="16.4"/><rect class="cls-15" x="203.74" y="336.4" width="16.77" height="10.13"/><rect class="cls-16" x="204.5" y="337.82" width="1.78" height="7.29"/><rect class="cls-16" x="207.36" y="337.82" width="0.62" height="7.29"/><rect class="cls-16" x="210.54" y="337.82" width="1.46" height="7.29"/><rect class="cls-16" x="208.7" y="337.82" width="0.89" height="7.29"/><rect class="cls-16" x="213.09" y="337.82" width="0.6" height="7.29"/><rect class="cls-16" x="215.94" y="337.82" width="1.21" height="7.29"/><rect class="cls-16" x="217.56" y="337.82" width="0.6" height="7.29"/><rect class="cls-16" x="214.58" y="337.82" width="0.83" height="7.29"/><rect class="cls-16" x="218.8" y="337.82" width="0.89" height="7.29"/><rect class="cls-12" x="220.13" y="302.27" width="44.22" height="43.21"/><rect class="cls-13" x="232.77" y="302.27" width="43.83" height="43.21"/><rect class="cls-14" x="251.19" y="302.27" width="6.98" height="11.12"/><rect class="cls-14" x="251.19" y="334.36" width="6.98" height="11.12"/><rect class="cls-15" x="262.13" y="336.62" width="11.37" height="6.87"/><rect class="cls-12" x="234.47" y="344.97" width="44.22" height="43.21"/><rect class="cls-13" x="247.1" y="344.97" width="43.83" height="43.21"/><rect class="cls-14" x="263.14" y="344.97" width="11.76" height="11.12"/><rect class="cls-14" x="263.14" y="377.06" width="11.76" height="11.12"/><rect class="cls-15" x="249.2" y="379.32" width="11.37" height="6.87"/><rect class="cls-12" x="189.36" y="226.72" width="44.22" height="43.21"/><rect class="cls-13" x="201.99" y="226.72" width="43.83" height="43.21"/><rect class="cls-14" x="218.03" y="226.72" width="11.76" height="11.12"/><rect class="cls-15" x="204.09" y="261.07" width="11.37" height="6.87"/><rect class="cls-12" x="155.2" y="320.95" width="68.8" height="67.23"/><rect class="cls-13" x="174.85" y="320.95" width="68.19" height="67.23"/><rect class="cls-14" x="199.8" y="320.95" width="18.3" height="17.3"/><rect class="cls-14" x="199.8" y="370.88" width="18.3" height="17.3"/><rect class="cls-15" x="178.12" y="374.4" width="17.69" height="10.69"/><polygon class="cls-17" points="122.84 210.28 122.23 232 133.58 232.22 134.51 210.45 122.84 210.28"/><path class="cls-18" d="M115.72,171.83V183a5.51,5.51,0,0,0-.57-.06,7.5,7.5,0,0,0,0,15c.19,0,.38,0,.57-.05v2.58a17.55,17.55,0,0,0,17.55,17.55h.36a17.55,17.55,0,0,0,17.55-17.55V171.83Z"/><path class="cls-16" d="M133.16,189.59a2.43,2.43,0,1,1-2.43-2.42A2.43,2.43,0,0,1,133.16,189.59Z"/><path class="cls-16" d="M146.53,189.59a2.43,2.43,0,1,1-2.43-2.42A2.43,2.43,0,0,1,146.53,189.59Z"/><path class="cls-19" d="M129.71,201.71h14s-.46,6.82-6.82,6.82S129.71,201.71,129.71,201.71Z"/><path class="cls-16" d="M141.36,182.7h4.88a.87.87,0,0,1,.87.87v.14a.88.88,0,0,1-.88.88h-4.88a.88.88,0,0,1-.88-.88v-.14A.87.87,0,0,1,141.36,182.7Z"/><path class="cls-16" d="M128.29,182.7h4.88a.88.88,0,0,1,.88.88v.14a.88.88,0,0,1-.88.88h-4.88a.87.87,0,0,1-.87-.87v-.14A.87.87,0,0,1,128.29,182.7Z"/><path class="cls-16" d="M108.75,171.83s1.89-15.76,19.66-12.42,26.71,3.78,29.13.75c0,0,5.12,16.67-14.87,16.67s-19.07-2.42-20.89,1.52-.76,10.46-.76,10.46h-4.54s0-7.05-6.66-3.53C109.82,185.28,108.14,180.62,108.75,171.83Z"/><path class="cls-20" d="M160,274.35c.29-.46.59-.9.9-1.33-2.13-2.2-4.45-4.64-6-6.37a12,12,0,0,1-2.59-4.49l-5-25.46a15.5,15.5,0,0,0-6.94-10.21,4.46,4.46,0,0,0-.57-.32c-8.32-4.08-11,6.55-11.2,10.29a6.68,6.68,0,0,0,.66,3.23l14.25,31.7a4.47,4.47,0,0,0,4.06,2.53l9.44,7A26.49,26.49,0,0,1,160,274.35Z"/><path class="cls-16" d="M138.72,375.72v18.61h33.63v-.08a10.13,10.13,0,0,0-6.7-9.74c-4.78-1.66-11-4.85-15.26-10.86Z"/><path class="cls-21" d="M150.39,373.65l-11.67,2.07.09,6.49,19.34-1.3A27.07,27.07,0,0,1,150.39,373.65Z"/><path class="cls-16" d="M110.23,375.72v18.61h33.63v-.08a10.13,10.13,0,0,0-6.7-9.74c-4.77-1.66-11-4.85-15.26-10.86Z"/><path class="cls-21" d="M121.9,373.65l-11.67,2.07.09,6.49,19.34-1.3A27.07,27.07,0,0,1,121.9,373.65Z"/><path class="cls-22" d="M144.45,287.56l2.48-.09a181.43,181.43,0,0,0-2.16-52.17A18.57,18.57,0,0,0,134,221.9c-3.38,1.3-7.3,1.68-10.45-.34-.27-.18-.52-.39-.77-.59-7,1.69-15.81,5.89-17.07,13.15-4,22.88,1.54,56.9,1.33,58-.66,3.26.53,85.84.53,85.84h20.75l.24-71.32c3.45,6.1,7.4,22.71,7.07,24.16l.55,45.24,19.23,2.26,2-50.47C158.4,324,149.32,300.34,144.45,287.56Z"/><path class="cls-23" d="M116.87,281.37c6.48.78,12.91,2.05,19.46,2,1.36,0,2.71,0,4,0,3.07-2.74,1.53-6.31.43-8-2.89-4.5-17.46-4.86-19.3-9.94-2-5.58-1.39-11.54-1.21-17.34.26-8-.84-13.91-8.48-17.58-1.19-.57-2.4-1.09-3.63-1.58a11.15,11.15,0,0,0-2.48,5.19c-2.48,14.23-1.28,32.75-.07,45A61.82,61.82,0,0,0,116.87,281.37Z"/><path class="cls-22" d="M92.2,267.7l15-37.65a6.78,6.78,0,0,1,1.94-2.67c2.87-2.41,11.1-4.59,13.72,4.3a10.46,10.46,0,0,1-.22,5.41l-13.19,25.36c-.48,1.39,25-1.2,25-1.2l.72,14.06s-15.78.72-24.51.86C92.59,276.47,91.55,269.31,92.2,267.7Z"/><path class="cls-18" d="M136,261a9.09,9.09,0,0,0-1.59.21l.72,14.06a10.7,10.7,0,0,0,1.61.05c4.73-.25,8.41-3.65,8.21-7.61S140.77,260.79,136,261Z"/><polygon class="cls-24" points="150.34 250.72 131.9 284.07 155.39 289.52 177.09 255.14 150.34 250.72"/><path class="cls-17" d="M170.73,266.05c.86.67.38,3.85-.95,6.73s-3.49,5.46-4.32,5.13c-2.93-1.16-4.06-4.88-2.61-8.15S168.23,264.09,170.73,266.05Z"/></g></g></g></svg>