<svg xmlns="http://www.w3.org/2000/svg" viewBox="0 0 480.96 447.81"><defs><style>.cls-1{isolation:isolate;}.cls-2{fill:#4b256e;opacity:0.37;}.cls-3{opacity:0.59;}.cls-4{fill:#4d2c69;}.cls-10,.cls-5{fill:#591c57;}.cls-6{fill:#815088;}.cls-7{fill:#9b77a1;}.cls-8{fill:#e6e1e6;}.cls-9{fill:#ba8db3;}.cls-10{opacity:0.32;}.cls-10,.cls-21,.cls-23{mix-blend-mode:multiply;}.cls-11{fill:#512f66;}.cls-12{fill:#c68b5c;}.cls-13{fill:#e5be84;}.cls-14{fill:#ebd1b8;}.cls-15{fill:#f7efe6;}.cls-16{fill:#454349;}.cls-17{fill:#efa77c;}.cls-18{fill:#f6b896;}.cls-19,.cls-31{fill:#fff;}.cls-20{fill:#ef9721;}.cls-21,.cls-24,.cls-28{fill:#4a556d;}.cls-21{opacity:0.55;}.cls-22,.cls-26{fill:#faa92e;}.cls-23{fill:#cba92c;opacity:0.5;}.cls-25{fill:#fed6b7;}.cls-25,.cls-26,.cls-27,.cls-28,.cls-30{fill-rule:evenodd;}.cls-27{fill:#fff3e9;}.cls-29,.cls-30{fill:#808285;}.cls-31{opacity:0.4;}</style></defs><title>Asset 7</title><g class="cls-1"><g id="Layer_2" data-name="Layer 2"><g id="Layer_1-2" data-name="Layer 1"><path class="cls-2" d="M428.49,43.26V51.9H391.86V1.21H322.58V24.13H242.9V53.6h-5.64V1.21H168V24.13H137.4V0H55.32V51.9h-48V43.26H0V414.75H7.27V398.24H95v16.51h7.27v-71H333.51v71h7.27V398.24h87.71v16.51h7.27V43.26Zm0,282.76H410.86V294H377.13V250.59H340.78V234.65h87.71Zm-200.3-65.85V273H171V243.53H102.25v-8.88H333.51v15.94H278.56v9.58H228.19ZM333.51,124.35v28.08H280.44V163.9H232.67V134.43H130.91v-4.77H102.25v-5.31Zm12.93,28.08h-5.66V124.35h87.71v92.57H364.71V152.43ZM95,124.35v5.31H46.63v87.26H7.27V124.35Zm0,110.3v8.88H63.18V326H7.27V234.65Zm314.47-128V62h19v44.64ZM29.46,62v44.64H7.27V62ZM95,388.16H7.27V343.75H95Zm245.8,0V343.75h87.71v44.41Z"/><g class="cls-3"><rect class="cls-4" x="333.51" y="43.26" width="7.27" height="371.49"/><rect class="cls-4" x="428.49" y="43.26" width="7.27" height="371.49"/><rect class="cls-4" x="337.15" y="51.9" width="94.98" height="10.08"/><rect class="cls-4" x="337.15" y="220.03" width="94.98" height="10.08"/><rect class="cls-4" x="337.15" y="388.16" width="94.98" height="10.08"/><rect class="cls-5" x="278.56" y="250.59" width="77.19" height="75.43"/><rect class="cls-6" x="300.62" y="250.59" width="76.51" height="75.43"/><rect class="cls-7" x="332.78" y="250.59" width="12.19" height="19.41"/><rect class="cls-7" x="332.78" y="306.61" width="12.19" height="19.41"/><rect class="cls-8" x="351.87" y="310.55" width="19.85" height="11.99"/><rect class="cls-9" x="352.78" y="312.24" width="2.11" height="8.63"/><rect class="cls-9" x="356.16" y="312.24" width="0.74" height="8.63"/><rect class="cls-9" x="359.93" y="312.24" width="1.73" height="8.63"/><rect class="cls-9" x="357.75" y="312.24" width="1.05" height="8.63"/><rect class="cls-9" x="362.95" y="312.24" width="0.71" height="8.63"/><rect class="cls-9" x="366.32" y="312.24" width="1.43" height="8.63"/><rect class="cls-9" x="368.24" y="312.24" width="0.71" height="8.63"/><rect class="cls-9" x="364.7" y="312.24" width="0.98" height="8.63"/><rect class="cls-9" x="369.7" y="312.24" width="1.05" height="8.63"/><rect class="cls-10" x="278.56" y="285.94" width="98.56" height="40.08"/><rect class="cls-5" x="322.58" y="1.21" width="54.26" height="53.02"/><rect class="cls-6" x="338.08" y="1.21" width="53.78" height="53.02"/><rect class="cls-7" x="360.68" y="1.21" width="8.57" height="13.64"/><rect class="cls-7" x="360.68" y="40.58" width="8.57" height="13.64"/><rect class="cls-8" x="374.1" y="43.35" width="13.95" height="8.43"/><rect class="cls-9" x="374.74" y="44.54" width="1.48" height="6.06"/><rect class="cls-9" x="377.12" y="44.54" width="0.52" height="6.06"/><rect class="cls-9" x="379.77" y="44.54" width="1.21" height="6.06"/><rect class="cls-9" x="378.23" y="44.54" width="0.74" height="6.06"/><rect class="cls-9" x="381.89" y="44.54" width="0.5" height="6.06"/><rect class="cls-9" x="384.26" y="44.54" width="1" height="6.06"/><rect class="cls-9" x="385.61" y="44.54" width="0.5" height="6.06"/><rect class="cls-9" x="383.12" y="44.54" width="0.69" height="6.06"/><rect class="cls-9" x="386.64" y="44.54" width="0.74" height="6.06"/><rect class="cls-5" x="341.58" y="294.03" width="54.26" height="31.99"/><rect class="cls-6" x="357.08" y="294.03" width="53.78" height="31.99"/><rect class="cls-7" x="376.76" y="294.03" width="14.43" height="9.48"/><rect class="cls-8" x="359.66" y="315.15" width="13.95" height="8.43"/><rect class="cls-9" x="360.3" y="316.33" width="1.48" height="6.07"/><rect class="cls-9" x="362.68" y="316.33" width="0.52" height="6.07"/><rect class="cls-9" x="365.32" y="316.33" width="1.21" height="6.07"/><rect class="cls-9" x="363.79" y="316.33" width="0.74" height="6.07"/><rect class="cls-9" x="367.44" y="316.33" width="0.5" height="6.07"/><rect class="cls-9" x="369.81" y="316.33" width="1" height="6.07"/><rect class="cls-9" x="371.16" y="316.33" width="0.5" height="6.07"/><rect class="cls-9" x="368.68" y="316.33" width="0.69" height="6.07"/><rect class="cls-9" x="372.19" y="316.33" width="0.74" height="6.07"/><rect class="cls-5" x="340.17" y="53.6" width="54.26" height="53.02"/><rect class="cls-6" x="355.67" y="53.6" width="53.78" height="53.02"/><rect class="cls-7" x="375.35" y="53.6" width="14.43" height="13.64"/><rect class="cls-7" x="375.35" y="92.98" width="14.43" height="13.64"/><rect class="cls-8" x="358.25" y="95.75" width="13.95" height="8.43"/><rect class="cls-9" x="358.88" y="96.93" width="1.48" height="6.07"/><rect class="cls-9" x="361.26" y="96.93" width="0.52" height="6.07"/><rect class="cls-9" x="363.91" y="96.93" width="1.21" height="6.07"/><rect class="cls-9" x="362.38" y="96.93" width="0.74" height="6.07"/><rect class="cls-9" x="366.03" y="96.93" width="0.5" height="6.07"/><rect class="cls-9" x="368.4" y="96.93" width="1" height="6.07"/><rect class="cls-9" x="369.75" y="96.93" width="0.5" height="6.07"/><rect class="cls-9" x="367.27" y="96.93" width="0.69" height="6.07"/><rect class="cls-9" x="370.78" y="96.93" width="0.74" height="6.07"/><rect class="cls-5" x="242.9" y="24.13" width="84.42" height="82.49"/><rect class="cls-6" x="267.02" y="24.13" width="83.67" height="82.49"/><rect class="cls-7" x="297.63" y="24.13" width="22.45" height="21.23"/><rect class="cls-7" x="297.63" y="85.39" width="22.45" height="21.23"/><rect class="cls-8" x="271.03" y="89.71" width="21.71" height="13.11"/><rect class="cls-9" x="272.02" y="91.54" width="2.3" height="9.44"/><rect class="cls-9" x="275.72" y="91.54" width="0.81" height="9.44"/><rect class="cls-9" x="279.84" y="91.54" width="1.89" height="9.44"/><rect class="cls-9" x="277.46" y="91.54" width="1.15" height="9.44"/><rect class="cls-9" x="283.14" y="91.54" width="0.78" height="9.44"/><rect class="cls-9" x="286.83" y="91.54" width="1.56" height="9.44"/><rect class="cls-9" x="288.93" y="91.54" width="0.78" height="9.44"/><rect class="cls-9" x="285.06" y="91.54" width="1.07" height="9.44"/><rect class="cls-9" x="290.53" y="91.54" width="1.15" height="9.44"/><rect class="cls-5" x="228.19" y="260.17" width="67.39" height="65.85"/><rect class="cls-6" x="247.45" y="260.17" width="66.79" height="65.85"/><rect class="cls-7" x="275.52" y="260.17" width="10.64" height="16.94"/><rect class="cls-7" x="275.52" y="309.08" width="10.64" height="16.94"/><rect class="cls-8" x="292.19" y="312.52" width="17.33" height="10.47"/><rect class="cls-9" x="292.98" y="313.99" width="1.84" height="7.53"/><rect class="cls-9" x="295.93" y="313.99" width="0.65" height="7.53"/><rect class="cls-9" x="299.22" y="313.99" width="1.51" height="7.53"/><rect class="cls-9" x="297.32" y="313.99" width="0.92" height="7.53"/><rect class="cls-9" x="301.86" y="313.99" width="0.62" height="7.53"/><rect class="cls-9" x="304.8" y="313.99" width="1.25" height="7.53"/><rect class="cls-9" x="306.47" y="313.99" width="0.62" height="7.53"/><rect class="cls-9" x="303.39" y="313.99" width="0.85" height="7.53"/><rect class="cls-9" x="307.76" y="313.99" width="0.92" height="7.53"/><rect class="cls-5" x="160.45" y="273" width="54.26" height="53.02"/><rect class="cls-6" x="175.96" y="273" width="53.78" height="53.02"/><rect class="cls-7" x="195.63" y="273" width="14.43" height="13.64"/><rect class="cls-7" x="195.63" y="312.38" width="14.43" height="13.64"/><rect class="cls-8" x="178.53" y="315.15" width="13.95" height="8.43"/><rect class="cls-9" x="179.17" y="316.33" width="1.48" height="6.07"/><rect class="cls-9" x="181.55" y="316.33" width="0.52" height="6.07"/><rect class="cls-9" x="184.2" y="316.33" width="1.21" height="6.07"/><rect class="cls-9" x="182.67" y="316.33" width="0.74" height="6.07"/><rect class="cls-9" x="186.32" y="316.33" width="0.5" height="6.07"/><rect class="cls-9" x="188.69" y="316.33" width="1" height="6.07"/><rect class="cls-9" x="190.04" y="316.33" width="0.5" height="6.07"/><rect class="cls-9" x="187.55" y="316.33" width="0.69" height="6.07"/><rect class="cls-9" x="191.07" y="316.33" width="0.74" height="6.07"/><rect class="cls-5" x="63.18" y="243.53" width="84.42" height="82.49"/><rect class="cls-6" x="87.3" y="243.53" width="83.67" height="82.49"/><rect class="cls-7" x="117.91" y="243.53" width="22.45" height="21.23"/><rect class="cls-7" x="117.91" y="304.79" width="22.45" height="21.23"/><rect class="cls-8" x="91.31" y="309.11" width="21.71" height="13.11"/><rect class="cls-9" x="92.3" y="310.94" width="2.3" height="9.44"/><rect class="cls-9" x="96.01" y="310.94" width="0.81" height="9.44"/><rect class="cls-9" x="100.12" y="310.94" width="1.89" height="9.44"/><rect class="cls-9" x="97.74" y="310.94" width="1.15" height="9.44"/><rect class="cls-9" x="103.43" y="310.94" width="0.78" height="9.44"/><rect class="cls-9" x="107.11" y="310.94" width="1.56" height="9.44"/><rect class="cls-9" x="109.21" y="310.94" width="0.78" height="9.44"/><rect class="cls-9" x="105.35" y="310.94" width="1.07" height="9.44"/><rect class="cls-9" x="110.82" y="310.94" width="1.15" height="9.44"/><rect class="cls-5" x="55.32" width="64.28" height="62.81"/><rect class="cls-6" x="73.69" width="63.71" height="62.81"/><rect class="cls-7" x="96.99" width="17.09" height="16.16"/><rect class="cls-7" x="96.99" y="46.65" width="17.09" height="16.16"/><rect class="cls-8" x="76.74" y="49.93" width="16.53" height="9.99"/><rect class="cls-9" x="77.49" y="51.33" width="1.75" height="7.19"/><rect class="cls-9" x="80.31" y="51.33" width="0.62" height="7.19"/><rect class="cls-9" x="83.45" y="51.33" width="1.44" height="7.19"/><rect class="cls-9" x="81.64" y="51.33" width="0.88" height="7.19"/><rect class="cls-9" x="85.96" y="51.33" width="0.59" height="7.19"/><rect class="cls-9" x="88.77" y="51.33" width="1.19" height="7.19"/><rect class="cls-9" x="90.37" y="51.33" width="0.59" height="7.19"/><rect class="cls-9" x="87.42" y="51.33" width="0.81" height="7.19"/><rect class="cls-9" x="91.59" y="51.33" width="0.88" height="7.19"/><rect class="cls-10" x="78.1" y="15.4" width="59.29" height="47.4"/><rect class="cls-5" x="167.98" y="1.21" width="54.26" height="53.02"/><rect class="cls-6" x="183.48" y="1.21" width="53.78" height="53.02"/><rect class="cls-7" x="206.09" y="1.21" width="8.57" height="13.64"/><rect class="cls-7" x="206.09" y="40.58" width="8.57" height="13.64"/><rect class="cls-8" x="219.5" y="43.35" width="13.95" height="8.43"/><rect class="cls-9" x="220.14" y="44.54" width="1.48" height="6.06"/><rect class="cls-9" x="222.52" y="44.54" width="0.52" height="6.06"/><rect class="cls-9" x="225.17" y="44.54" width="1.21" height="6.06"/><rect class="cls-9" x="223.64" y="44.54" width="0.74" height="6.06"/><rect class="cls-9" x="227.29" y="44.54" width="0.5" height="6.06"/><rect class="cls-9" x="229.66" y="44.54" width="1" height="6.06"/><rect class="cls-9" x="231.01" y="44.54" width="0.5" height="6.06"/><rect class="cls-9" x="228.52" y="44.54" width="0.69" height="6.06"/><rect class="cls-9" x="232.04" y="44.54" width="0.74" height="6.06"/><rect class="cls-5" x="185.57" y="53.6" width="54.26" height="53.02"/><rect class="cls-6" x="201.07" y="53.6" width="53.78" height="53.02"/><rect class="cls-7" x="220.75" y="53.6" width="14.43" height="13.64"/><rect class="cls-7" x="220.75" y="92.98" width="14.43" height="13.64"/><rect class="cls-8" x="203.65" y="95.75" width="13.95" height="8.43"/><rect class="cls-9" x="204.29" y="96.93" width="1.48" height="6.07"/><rect class="cls-9" x="206.67" y="96.93" width="0.52" height="6.07"/><rect class="cls-9" x="209.31" y="96.93" width="1.21" height="6.07"/><rect class="cls-9" x="207.78" y="96.93" width="0.74" height="6.07"/><rect class="cls-9" x="211.44" y="96.93" width="0.5" height="6.07"/><rect class="cls-9" x="213.81" y="96.93" width="1" height="6.07"/><rect class="cls-9" x="215.15" y="96.93" width="0.5" height="6.07"/><rect class="cls-9" x="212.67" y="96.93" width="0.69" height="6.07"/><rect class="cls-9" x="216.19" y="96.93" width="0.74" height="6.07"/><rect class="cls-5" x="88.3" y="24.13" width="84.42" height="82.49"/><rect class="cls-6" x="112.42" y="24.13" width="83.67" height="82.49"/><rect class="cls-7" x="143.03" y="24.13" width="22.45" height="21.23"/><rect class="cls-7" x="143.03" y="85.39" width="22.45" height="21.23"/><rect class="cls-8" x="116.43" y="89.71" width="21.71" height="13.11"/><rect class="cls-9" x="117.42" y="91.54" width="2.3" height="9.44"/><rect class="cls-9" x="121.13" y="91.54" width="0.81" height="9.44"/><rect class="cls-9" x="125.24" y="91.54" width="1.89" height="9.44"/><rect class="cls-9" x="122.86" y="91.54" width="1.15" height="9.44"/><rect class="cls-9" x="128.54" y="91.54" width="0.78" height="9.44"/><rect class="cls-9" x="132.23" y="91.54" width="1.56" height="9.44"/><rect class="cls-9" x="134.33" y="91.54" width="0.77" height="9.44"/><rect class="cls-9" x="130.46" y="91.54" width="1.07" height="9.44"/><rect class="cls-9" x="135.94" y="91.54" width="1.15" height="9.44"/><rect class="cls-5" x="280.44" y="152.43" width="66" height="64.49"/><rect class="cls-6" x="299.29" y="152.43" width="65.42" height="64.49"/><rect class="cls-7" x="323.23" y="152.43" width="17.55" height="16.59"/><rect class="cls-7" x="323.23" y="200.32" width="17.55" height="16.59"/><rect class="cls-8" x="302.43" y="203.69" width="16.97" height="10.25"/><rect class="cls-9" x="303.21" y="205.13" width="1.8" height="7.38"/><rect class="cls-9" x="306.1" y="205.13" width="0.63" height="7.38"/><rect class="cls-9" x="309.32" y="205.13" width="1.48" height="7.38"/><rect class="cls-9" x="307.46" y="205.13" width="0.9" height="7.38"/><rect class="cls-9" x="311.9" y="205.13" width="0.61" height="7.38"/><rect class="cls-9" x="314.78" y="205.13" width="1.22" height="7.38"/><rect class="cls-9" x="316.42" y="205.13" width="0.61" height="7.38"/><rect class="cls-9" x="313.4" y="205.13" width="0.84" height="7.38"/><rect class="cls-9" x="317.68" y="205.13" width="0.9" height="7.38"/><rect class="cls-5" x="46.63" y="129.66" width="66" height="87.26"/><rect class="cls-6" x="65.49" y="129.66" width="65.42" height="87.26"/><rect class="cls-7" x="89.42" y="129.66" width="17.55" height="16.59"/><rect class="cls-7" x="89.42" y="200.32" width="17.55" height="16.59"/><rect class="cls-8" x="68.63" y="203.69" width="16.97" height="10.25"/><rect class="cls-9" x="69.4" y="205.13" width="1.8" height="7.38"/><rect class="cls-9" x="72.3" y="205.13" width="0.63" height="7.38"/><rect class="cls-9" x="75.51" y="205.13" width="1.48" height="7.38"/><rect class="cls-9" x="73.65" y="205.13" width="0.9" height="7.38"/><rect class="cls-9" x="78.1" y="205.13" width="0.61" height="7.38"/><rect class="cls-9" x="80.98" y="205.13" width="1.22" height="7.38"/><rect class="cls-9" x="82.62" y="205.13" width="0.61" height="7.38"/><rect class="cls-9" x="79.6" y="205.13" width="0.84" height="7.38"/><rect class="cls-9" x="83.87" y="205.13" width="0.9" height="7.38"/><rect class="cls-10" x="107.5" y="129.66" width="23.41" height="87.26"/><rect class="cls-5" x="222.15" y="163.9" width="54.26" height="53.02"/><rect class="cls-6" x="237.65" y="163.9" width="53.78" height="53.02"/><rect class="cls-7" x="257.33" y="163.9" width="14.43" height="13.64"/><rect class="cls-7" x="257.33" y="203.28" width="14.43" height="13.64"/><rect class="cls-8" x="240.23" y="206.05" width="13.95" height="8.43"/><rect class="cls-9" x="240.86" y="207.23" width="1.48" height="6.07"/><rect class="cls-9" x="243.24" y="207.23" width="0.52" height="6.07"/><rect class="cls-9" x="245.89" y="207.23" width="1.21" height="6.07"/><rect class="cls-9" x="244.36" y="207.23" width="0.74" height="6.07"/><rect class="cls-9" x="248.01" y="207.23" width="0.5" height="6.07"/><rect class="cls-9" x="250.38" y="207.23" width="1" height="6.07"/><rect class="cls-9" x="251.73" y="207.23" width="0.5" height="6.07"/><rect class="cls-9" x="249.25" y="207.23" width="0.69" height="6.07"/><rect class="cls-9" x="252.76" y="207.23" width="0.74" height="6.07"/><rect class="cls-5" x="124.88" y="134.43" width="84.42" height="82.49"/><rect class="cls-6" x="149" y="134.43" width="83.67" height="82.49"/><rect class="cls-7" x="179.61" y="134.43" width="22.45" height="21.22"/><rect class="cls-7" x="179.61" y="195.69" width="22.45" height="21.23"/><rect class="cls-8" x="153.01" y="200" width="21.71" height="13.12"/><rect class="cls-9" x="154" y="201.84" width="2.3" height="9.44"/><rect class="cls-9" x="157.7" y="201.84" width="0.81" height="9.44"/><rect class="cls-9" x="161.82" y="201.84" width="1.89" height="9.44"/><rect class="cls-9" x="159.44" y="201.84" width="1.15" height="9.44"/><rect class="cls-9" x="165.12" y="201.84" width="0.78" height="9.44"/><rect class="cls-9" x="168.81" y="201.84" width="1.56" height="9.44"/><rect class="cls-9" x="170.91" y="201.84" width="0.78" height="9.44"/><rect class="cls-9" x="167.04" y="201.84" width="1.07" height="9.44"/><rect class="cls-9" x="172.51" y="201.84" width="1.15" height="9.44"/><rect class="cls-5" x="29.46" y="53.6" width="54.26" height="53.02"/><rect class="cls-6" x="44.96" y="53.6" width="53.78" height="53.02"/><rect class="cls-7" x="64.63" y="53.6" width="14.43" height="13.64"/><rect class="cls-7" x="64.63" y="92.98" width="14.43" height="13.64"/><rect class="cls-8" x="47.53" y="95.75" width="13.95" height="8.43"/><rect class="cls-9" x="48.17" y="96.93" width="1.48" height="6.07"/><rect class="cls-9" x="50.55" y="96.93" width="0.52" height="6.07"/><rect class="cls-9" x="53.2" y="96.93" width="1.21" height="6.07"/><rect class="cls-9" x="51.67" y="96.93" width="0.74" height="6.07"/><rect class="cls-9" x="55.32" y="96.93" width="0.5" height="6.07"/><rect class="cls-9" x="57.69" y="96.93" width="1" height="6.07"/><rect class="cls-9" x="59.04" y="96.93" width="0.5" height="6.07"/><rect class="cls-9" x="56.55" y="96.93" width="0.69" height="6.07"/><rect class="cls-9" x="60.07" y="96.93" width="0.74" height="6.07"/><rect class="cls-10" x="83.97" y="53.6" width="14.77" height="53.02"/><rect class="cls-11" x="3.63" y="106.62" width="424.86" height="17.73"/><rect class="cls-11" x="3.63" y="216.92" width="424.86" height="17.73"/><rect class="cls-11" x="3.63" y="326.02" width="424.86" height="17.73"/><rect class="cls-4" y="43.26" width="7.27" height="371.49"/><rect class="cls-4" x="94.98" y="43.26" width="7.27" height="371.49"/><rect class="cls-4" x="3.63" y="51.9" width="94.98" height="10.08"/><rect class="cls-4" x="3.63" y="388.16" width="94.98" height="10.08"/></g><rect class="cls-12" x="201.28" y="225.37" width="87.56" height="127.21"/><rect class="cls-13" x="231.08" y="225.37" width="86.64" height="127.21"/><rect class="cls-14" x="268.9" y="225.37" width="20.33" height="26.23"/><rect class="cls-14" x="268.9" y="326.36" width="20.33" height="26.23"/><rect class="cls-15" x="236.04" y="331.69" width="26.82" height="16.2"/><rect class="cls-16" x="237.26" y="333.96" width="2.85" height="11.66"/><rect class="cls-16" x="241.84" y="333.96" width="1" height="11.66"/><rect class="cls-16" x="246.92" y="333.96" width="2.33" height="11.66"/><rect class="cls-16" x="243.98" y="333.96" width="1.42" height="11.66"/><rect class="cls-16" x="251" y="333.96" width="0.96" height="11.66"/><rect class="cls-16" x="255.56" y="333.96" width="1.93" height="11.66"/><rect class="cls-16" x="258.15" y="333.96" width="0.96" height="11.66"/><rect class="cls-16" x="253.38" y="333.96" width="1.32" height="11.66"/><rect class="cls-16" x="260.14" y="333.96" width="1.42" height="11.66"/><rect class="cls-12" x="262.26" y="277.1" width="70.72" height="69.1"/><rect class="cls-13" x="282.46" y="277.1" width="70.1" height="69.1"/><rect class="cls-14" x="311.93" y="277.1" width="11.16" height="17.78"/><rect class="cls-14" x="311.93" y="328.42" width="11.16" height="17.78"/><rect class="cls-15" x="329.42" y="332.04" width="18.19" height="10.99"/><rect class="cls-12" x="285.19" y="345.39" width="70.72" height="69.1"/><rect class="cls-13" x="305.4" y="345.39" width="70.1" height="69.1"/><rect class="cls-14" x="331.04" y="345.39" width="18.81" height="17.78"/><rect class="cls-14" x="331.04" y="396.72" width="18.81" height="17.78"/><rect class="cls-15" x="308.75" y="400.33" width="18.19" height="10.99"/><rect class="cls-12" x="213.04" y="156.27" width="70.72" height="69.1"/><rect class="cls-13" x="233.25" y="156.27" width="70.1" height="69.1"/><rect class="cls-14" x="258.89" y="156.27" width="18.81" height="17.78"/><rect class="cls-15" x="236.61" y="211.2" width="18.19" height="10.99"/><rect class="cls-12" x="158.41" y="306.98" width="110.03" height="107.51"/><rect class="cls-13" x="189.84" y="306.98" width="109.06" height="107.51"/><rect class="cls-14" x="229.74" y="306.98" width="29.26" height="27.66"/><rect class="cls-14" x="229.74" y="386.83" width="29.26" height="27.66"/><rect class="cls-15" x="195.07" y="392.45" width="28.29" height="17.09"/><polygon class="cls-17" points="109.84 147.95 109.04 176.81 124.11 177.11 125.35 148.18 109.84 147.95"/><path class="cls-18" d="M100.38,96.88v14.87c-.25,0-.5-.08-.76-.08a10,10,0,0,0,0,19.94c.26,0,.51-.06.76-.08V135a23.32,23.32,0,0,0,23.32,23.32h.47A23.32,23.32,0,0,0,147.49,135V96.88Z"/><path class="cls-16" d="M123.54,120.47a3.22,3.22,0,1,1-3.22-3.22A3.22,3.22,0,0,1,123.54,120.47Z"/><path class="cls-16" d="M141.31,120.47a3.22,3.22,0,1,1-3.22-3.22A3.22,3.22,0,0,1,141.31,120.47Z"/><path class="cls-19" d="M119,136.58h18.58s-.61,9-9.06,9S119,136.58,119,136.58Z"/><rect class="cls-16" x="133.28" y="111.31" width="8.81" height="2.52" rx="1.16"/><rect class="cls-16" x="115.92" y="111.31" width="8.81" height="2.52" rx="1.16"/><path class="cls-16" d="M91.12,96.88s2.52-20.94,26.12-16.51,35.48,5,38.7,1c0,0,6.8,22.14-19.75,22.14s-25.34-3.22-27.76,2-1,13.9-1,13.9h-6s0-9.37-8.84-4.69C92.55,114.74,90.31,108.55,91.12,96.88Z"/><path class="cls-20" d="M159.13,233.07c.4-.62.8-1.2,1.2-1.77-2.82-2.93-5.9-6.16-8-8.46a16.07,16.07,0,0,1-3.43-6l-6.61-33.82a20.52,20.52,0,0,0-9.22-13.56,8.34,8.34,0,0,0-.75-.43c-11.06-5.41-14.66,8.7-14.88,13.67a9,9,0,0,0,.88,4.3l18.92,42.1a5.94,5.94,0,0,0,5.4,3.36l12.55,9.32A35.1,35.1,0,0,1,159.13,233.07Z"/><path class="cls-16" d="M130.94,367.73v24.72h44.67v-.11a13.44,13.44,0,0,0-8.9-12.93c-6.34-2.2-14.65-6.45-20.27-14.43Z"/><path class="cls-21" d="M146.44,365l-15.5,2.75.11,8.62,25.69-1.72A36.28,36.28,0,0,1,146.44,365Z"/><path class="cls-16" d="M93.09,367.73v24.72h44.67v-.11a13.43,13.43,0,0,0-8.9-12.93c-6.34-2.2-14.65-6.45-20.26-14.43Z"/><path class="cls-21" d="M108.6,365l-15.51,2.75.11,8.62,25.7-1.72A36.15,36.15,0,0,1,108.6,365Z"/><path class="cls-22" d="M138.55,250.62l3.29-.13a240.71,240.71,0,0,0-2.87-69.3,24.66,24.66,0,0,0-14.32-17.81c-4.49,1.74-9.7,2.24-13.87-.45a9.94,9.94,0,0,1-1-.78c-9.27,2.25-21,7.83-22.69,17.48-5.29,30.38,2.06,75.58,1.77,77-.87,4.33.72,114,.72,114H117.1l.33-94.74c4.58,8.11,9.83,30.17,9.39,32.1l.73,60.1,25.54,3,2.71-67.05C157.07,299,145,267.59,138.55,250.62Z"/><path class="cls-23" d="M101.91,242.39c8.61,1,17.15,2.72,25.85,2.67,1.81,0,3.6,0,5.36,0,4.09-3.65,2-8.4.58-10.68-3.83-6-23.2-6.45-25.64-13.21-2.67-7.4-1.85-15.33-1.6-23,.34-10.67-1.13-18.47-11.27-23.35-1.58-.77-3.19-1.45-4.82-2.1a14.9,14.9,0,0,0-3.31,6.9c-3.29,18.9-1.69,43.5-.08,59.75A82.42,82.42,0,0,0,101.91,242.39Z"/><path class="cls-22" d="M69.13,224.23l20-50a8.87,8.87,0,0,1,2.57-3.54c3.81-3.2,14.75-6.1,18.23,5.71a13.83,13.83,0,0,1-.3,7.19L92.1,217.25c-.65,1.86,33.15-1.58,33.15-1.58l1,18.67s-21,.95-32.56,1.14C69.65,235.88,68.28,226.37,69.13,224.23Z"/><path class="cls-18" d="M127.36,215.38a13.08,13.08,0,0,0-2.11.29l1,18.67a15,15,0,0,0,2.13.07c6.29-.33,11.18-4.85,10.91-10.11S133.65,215.05,127.36,215.38Z"/><polygon class="cls-24" points="146.37 201.67 121.87 245.99 153.08 253.21 181.91 207.54 146.37 201.67"/><path class="cls-17" d="M173.46,222c1.14.89.5,5.11-1.26,8.94s-4.64,7.26-5.75,6.81c-3.88-1.54-5.39-6.47-3.45-10.83S170.14,219.43,173.46,222Z"/><path class="cls-25" d="M369.73,323.38a24.21,24.21,0,0,0,24.14-24.14V233l9.35-2.9,38.15,123.2-65,20.12-10.53-34-19.65-16Z"/><path class="cls-25" d="M277,266.41a12.36,12.36,0,0,1,0-15Z"/><path class="cls-25" d="M277,208.2v23.89l-3.36-2.74A12.29,12.29,0,0,1,277,208.2Z"/><path class="cls-25" d="M258.37,164.71a12.29,12.29,0,0,1,17.29-2l1.35,1.1V195.6L260.34,182A12.41,12.41,0,0,1,258.37,164.71Z"/><polygon class="cls-26" points="445.32 332.7 361.77 358.57 389.41 447.81 480.96 447.81 445.32 332.7"/><path class="cls-27" d="M300.82,225.67l-4.19-3.23c-7.6,2.05-11.24,7.17-11.56,14.87l3.94,3.15C299.76,249,309.85,232.44,300.82,225.67Z"/><path class="cls-28" d="M277.41,117.18V299.23a24.22,24.22,0,0,0,24.15,24.15h68.57a24.22,24.22,0,0,0,24.14-24.15v-182A24.22,24.22,0,0,0,370.13,93H301.56A24.22,24.22,0,0,0,277.41,117.18Zm10.28-6.39a.34.34,0,0,1,.34-.34h95.63a.34.34,0,0,1,.33.34v189.1a.34.34,0,0,1-.33.34H288a.34.34,0,0,1-.34-.34Z"/><rect class="cls-29" x="316.38" y="98.73" width="38.92" height="3.49" rx="1.75"/><path class="cls-30" d="M335.84,306.52a5.91,5.91,0,1,0,5.9,5.9A5.9,5.9,0,0,0,335.84,306.52Z"/><rect class="cls-31" x="287.62" y="111.02" width="96.3" height="189.78" rx="0.34"/><path class="cls-25" d="M403.4,283l-8.31,2.57L392.82,275l-18.34-84.71c-3.81-17.61,7.14-23.57,18-26.93l21.65,100C415.94,271.73,411.12,280.58,403.4,283Z"/><path class="cls-25" d="M276.09,251.83h0a12.36,12.36,0,0,0,2,17.29L296,283.47a12.33,12.33,0,0,0,17.29-2h0a12.35,12.35,0,0,0-2-17.29l-17.95-14.35A12.33,12.33,0,0,0,276.09,251.83Z"/><path class="cls-27" d="M309.68,265.9l-4.19-3.22c-7.6,2-11.23,7.16-11.55,14.86l3.94,3.16C308.62,289.26,318.72,272.67,309.68,265.9Z"/><path class="cls-25" d="M270.42,213.59h0a12.37,12.37,0,0,0,2,17.3l15.28,12.22a12.35,12.35,0,0,0,17.3-2h0a12.35,12.35,0,0,0-2-17.29l-15.28-12.22A12.33,12.33,0,0,0,270.42,213.59Z"/><path class="cls-27" d="M301.43,226.19,297.25,223c-7.61,2-11.24,7.17-11.56,14.87l3.94,3.15C300.37,249.55,310.47,233,301.43,226.19Z"/></g></g></g></svg>