<svg width="222" height="70" viewBox="0 0 222 70" fill="none" xmlns="http://www.w3.org/2000/svg">
<g clip-path="url(#clip0)">
<path d="M84.0701 42.46H79.1801V25.12H84.0701V26.75C84.6807 26.0874 85.4279 25.5654 86.2602 25.2201C87.0924 24.8747 87.9897 24.7143 88.8901 24.75C92.3601 24.75 94.4101 26.87 94.4101 31.31V42.46H89.5101V31.46C89.5931 30.8768 89.4419 30.2845 89.0897 29.8123C88.7375 29.3402 88.2127 29.0266 87.6301 28.94C87.4473 28.92 87.2628 28.92 87.0801 28.94C85.2801 28.94 84.0801 30.43 84.0801 34.32L84.0701 42.46Z" fill="white"/>
<path d="M113.55 41.11C111.415 42.1805 109.068 42.7612 106.68 42.81C100.78 42.81 97.15 39.38 97.15 33.81C97.15 28.4 100.06 24.81 105.78 24.81C111.19 24.81 113.86 28.28 113.86 33.07V35.6H102.21C102.7 37.54 104.12 38.68 106.79 38.68C108.607 38.5976 110.383 38.1126 111.99 37.26L113.55 41.11ZM102.31 31.61H108.94C108.8 29.74 107.52 28.91 105.78 28.91C104.976 28.8718 104.185 29.1218 103.549 29.6149C102.913 30.108 102.473 30.8119 102.31 31.6V31.61Z" fill="white"/>
<path d="M116.15 33.79C116.15 28.38 119.03 24.79 124.79 24.79C130.55 24.79 133.39 28.4 133.39 33.79C133.39 39.18 130.55 42.79 124.79 42.79C119.03 42.79 116.15 39.2 116.15 33.79ZM121.05 33.79C121.05 36.79 122.26 38.68 124.79 38.68C127.32 38.68 128.5 36.77 128.5 33.79C128.5 30.81 127.32 28.9 124.79 28.9C122.26 28.9 121.05 30.81 121.05 33.79Z" fill="white"/>
<path d="M138.6 25.12L142.17 35.42L145.81 25.12H151.05L144.25 42.46H140.12L133.32 25.12H138.6Z" fill="white"/>
<path d="M153.34 29.25H151.34V25.12H155.95C157.68 25.12 158.24 25.4 158.24 27.03V42.46H153.35L153.34 29.25ZM153.44 18.18H158.16V22.76H153.44V18.18Z" fill="white"/>
<path d="M172.65 30.22C171.227 29.4163 169.633 28.9638 168 28.9C166.86 28.9 166.09 29.25 166.09 29.97C166.09 32.16 174.94 31.12 174.94 37.05C174.94 41.14 171.82 42.81 167.72 42.81C165.101 42.9191 162.525 42.109 160.44 40.52L162.69 36.77C164.148 37.9055 165.916 38.5716 167.76 38.68C168.83 38.68 170.05 38.54 170.05 37.4C170.05 34.8 161.2 36.4 161.2 29.97C161.2 26.23 164.53 24.77 168.2 24.77C170.396 24.7577 172.564 25.2721 174.52 26.27L172.65 30.22Z" fill="white"/>
<path d="M178.17 29.25H176.17V25.12H180.78C182.52 25.12 183.07 25.4 183.07 27.03V42.46H178.18L178.17 29.25ZM178.27 18.18H183V22.76H178.28L178.27 18.18Z" fill="white"/>
<path d="M185.8 33.79C185.8 28.38 188.68 24.79 194.44 24.79C200.2 24.79 203.04 28.4 203.04 33.79C203.04 39.18 200.2 42.79 194.44 42.79C188.68 42.79 185.8 39.2 185.8 33.79ZM190.7 33.79C190.7 36.79 191.91 38.68 194.44 38.68C196.97 38.68 198.15 36.77 198.15 33.79C198.15 30.81 197 28.9 194.44 28.9C191.88 28.9 190.7 30.81 190.7 33.79V33.79Z" fill="white"/>
<path d="M210.71 42.46H205.82V25.12H210.71V26.75C211.321 26.0874 212.068 25.5654 212.9 25.2201C213.732 24.8747 214.63 24.7143 215.53 24.75C219 24.75 221.05 26.87 221.05 31.31V42.46H216.16V31.46C216.24 30.8757 216.087 30.2834 215.733 29.8117C215.379 29.3399 214.853 29.0267 214.27 28.94C214.091 28.92 213.91 28.92 213.73 28.94C211.93 28.94 210.73 30.43 210.73 34.32L210.71 42.46Z" fill="white"/>
<path d="M56.2601 35C56.2601 33.38 56.2601 31.76 56.2601 30.14C56.2601 29.67 56.3501 29.49 56.8801 29.49C60.1201 29.49 63.3501 29.49 66.5901 29.49C67.0701 29.49 67.1901 29.64 67.1901 30.1C67.1901 33.36 67.1901 36.62 67.1901 39.88C67.1901 40.34 67.0801 40.5 66.6001 40.5C63.3601 40.5 60.1201 40.5 56.8901 40.5C56.3501 40.5 56.2501 40.31 56.2601 39.85C56.2801 38.22 56.2601 36.6 56.2601 35Z" fill="white"/>
<path d="M5.42 40.47C3.85 40.47 2.28 40.47 0.71 40.47C0.19 40.47 0 40.36 0 39.8C0 36.6 0 33.3867 0 30.16C0 29.71 0.06 29.48 0.62 29.48C3.84 29.48 7.05 29.48 10.27 29.48C10.75 29.48 10.92 29.6 10.91 30.11C10.91 33.35 10.91 36.59 10.91 39.83C10.91 40.32 10.8 40.49 10.28 40.48C8.66 40.45 7 40.47 5.42 40.47Z" fill="white"/>
<path d="M33.53 19.28C31.93 19.28 30.34 19.28 28.74 19.28C28.23 19.28 28.1 19.12 28.1 18.63C28.1 15.42 28.1 12.2 28.1 8.99001C28.1 8.49001 28.24 8.35001 28.74 8.35001C31.9733 8.35001 35.21 8.35001 38.45 8.35001C38.94 8.35001 39.1 8.48001 39.09 8.98001C39.09 12.2 39.09 15.41 39.09 18.63C39.09 19.11 38.98 19.29 38.46 19.28C36.81 19.26 35.17 19.28 33.53 19.28Z" fill="white"/>
<path d="M33.56 61.6C31.94 61.6 30.32 61.6 28.7 61.6C28.26 61.6 28.09 61.51 28.09 61.02C28.09 57.78 28.09 54.55 28.09 51.31C28.09 50.8 28.25 50.67 28.74 50.68H38.45C38.95 50.68 39.1 50.82 39.1 51.32C39.1 54.53 39.1 57.75 39.1 60.96C39.1 61.53 38.9 61.61 38.41 61.61C36.79 61.58 35.18 61.6 33.56 61.6Z" fill="white"/>
<path d="M12.49 20.82C12.49 19.42 12.49 18.01 12.49 16.61C12.49 16.09 12.65 15.97 13.14 15.97C15.9466 15.97 18.7566 15.97 21.57 15.97C22.04 15.97 22.19 16.09 22.18 16.57C22.18 19.4 22.18 22.24 22.18 25.07C22.18 25.55 22.04 25.68 21.58 25.67C18.77 25.67 15.96 25.67 13.15 25.67C12.57 25.67 12.48 25.47 12.49 24.97C12.5 23.59 12.49 22.21 12.49 20.82Z" fill="white"/>
<path d="M17.37 44.31C18.75 44.31 20.13 44.31 21.51 44.31C21.98 44.31 22.19 44.37 22.18 44.92C22.18 47.76 22.18 50.59 22.18 53.43C22.18 53.86 22.08 54 21.63 54C18.7633 54 15.8866 54 13 54C12.53 54 12.45 53.84 12.45 53.42C12.45 50.59 12.45 47.75 12.45 44.92C12.45 44.46 12.54 44.29 13.04 44.31C14.51 44.33 15.94 44.31 17.37 44.31Z" fill="white"/>
<path d="M49.83 54C48.45 54 47.07 54 45.68 54C45.22 54 45.01 53.94 45.02 53.39C45.02 50.56 45.02 47.72 45.02 44.88C45.02 44.46 45.12 44.3 45.57 44.31C48.43 44.31 51.29 44.31 54.15 44.31C54.61 44.31 54.7 44.46 54.7 44.88C54.7 47.72 54.7 50.56 54.7 53.39C54.7 53.94 54.5 54.01 54.03 54C52.63 54 51.22 54 49.82 54H49.83Z" fill="white"/>
<path d="M49.86 16C51.29 16 52.72 16 54.15 16C54.55 16 54.68 16.1 54.67 16.51C54.67 19.37 54.67 22.23 54.67 25.09C54.67 25.52 54.52 25.59 54.14 25.59C51.3 25.59 48.47 25.59 45.63 25.59C45.13 25.59 45.04 25.41 45.05 24.97C45.05 22.18 45.05 19.39 45.05 16.61C45.05 16.07 45.25 15.99 45.72 16C47.09 16.05 48.47 16 49.86 16Z" fill="white"/>
<path d="M48.58 10.75C47.63 10.75 46.68 10.75 45.72 10.75C45.32 10.75 45.2 10.63 45.2 10.22C45.2 8.34001 45.2 6.46001 45.2 4.59001C45.2 4.16001 45.35 4.07001 45.74 4.08001H51.45C51.85 4.08001 51.9799 4.19001 51.9799 4.60001C51.9799 6.48001 51.9799 8.36001 51.9799 10.24C51.9799 10.67 51.82 10.76 51.43 10.75C50.48 10.73 49.53 10.75 48.58 10.75Z" fill="white"/>
<path d="M18.57 65.88C17.64 65.88 16.71 65.88 15.79 65.88C15.36 65.88 15.21 65.8 15.21 65.34C15.21 63.48 15.21 61.63 15.21 59.77C15.21 59.35 15.32 59.19 15.77 59.19C17.67 59.19 19.57 59.19 21.47 59.19C21.87 59.19 22.01 59.31 22 59.72C22 61.6 22 63.47 22 65.35C22 65.75 21.91 65.89 21.49 65.88C20.52 65.86 19.54 65.88 18.57 65.88Z" fill="white"/>
<path d="M57.36 13C57.36 12.24 57.36 11.48 57.36 10.72C57.36 10.33 57.44 10.16 57.87 10.17C59.47 10.17 61.06 10.17 62.65 10.17C63.03 10.17 63.15 10.3 63.15 10.67C63.15 12.27 63.15 13.86 63.15 15.45C63.15 15.84 63 15.94 62.64 15.94C61.05 15.94 59.45 15.94 57.86 15.94C57.44 15.94 57.39 15.74 57.39 15.41C57.39 14.6 57.39 13.8 57.39 12.99L57.36 13Z" fill="white"/>
<path d="M6.99994 54C7.75994 54 8.51994 54 9.27994 54C9.68994 54 9.85994 54.07 9.86994 54.53C9.86994 56.1 9.70994 57.66 9.86994 59.22C9.86994 59.67 9.71994 59.78 9.29994 59.78C7.74994 59.78 6.20994 59.78 4.65994 59.78C4.22994 59.78 4.07994 59.64 4.08994 59.2C4.08994 57.66 4.08994 56.11 4.08994 54.57C4.08994 54.13 4.21994 53.98 4.64994 54C5.39994 54 6.17994 54 6.99994 54Z" fill="white"/>
<path d="M40.93 2.39C40.93 2.99 40.93 3.58 40.93 4.18C40.93 4.54 40.84 4.68 40.45 4.68C39.24 4.68 38.02 4.68 36.81 4.68C36.43 4.68 36.25 4.59 36.26 4.16C36.26 2.95 36.26 1.73 36.26 0.520002C36.26 0.100002 36.41 -0.00999846 36.8 1.54262e-06C38 1.54262e-06 39.24 1.54262e-06 40.45 1.54262e-06C40.82 1.54262e-06 40.96 0.100002 40.94 0.480002C40.94 1.12 40.94 1.76 40.94 2.4L40.93 2.39Z" fill="white"/>
<path d="M26.26 67.59C26.26 66.97 26.26 66.35 26.26 65.74C26.26 65.39 26.36 65.29 26.7 65.3C27.94 65.3 29.17 65.3 30.41 65.3C30.83 65.3 30.93 65.45 30.93 65.84C30.93 67.0266 30.93 68.2167 30.93 69.41C30.93 69.83 30.83 70 30.37 69.99C29.1566 69.99 27.9466 69.99 26.74 69.99C26.36 69.99 26.24 69.9 26.25 69.51C26.28 68.87 26.26 68.23 26.26 67.59Z" fill="white"/>
<path d="M23.27 12.84C21.74 12.84 21.74 12.84 21.74 11.32C21.74 9.79999 21.74 9.79999 23.28 9.79999C24.82 9.79999 24.77 9.79999 24.77 11.29V11.36C24.77 12.84 24.77 12.84 23.27 12.84Z" fill="white"/>
<path d="M44 57.13C45.49 57.13 45.49 57.13 45.49 58.6C45.49 60.07 45.49 60.16 43.94 60.16C42.39 60.16 42.46 60.16 42.46 58.68C42.46 57.2 42.43 57.13 44 57.13Z" fill="white"/>
<path d="M58.91 46.62C58.91 45.12 58.91 45.12 60.42 45.12C61.93 45.12 61.92 45.12 61.92 46.63C61.92 48.14 61.92 48.17 60.44 48.17C58.96 48.17 58.91 48.17 58.91 46.62Z" fill="white"/>
<path d="M6.84003 21.8C8.29003 21.8 8.29003 21.8 8.29003 23.24C8.29003 24.84 8.29003 24.84 6.66003 24.84C5.28003 24.84 5.28003 24.84 5.28003 23.49V23.34C5.28003 21.8 5.28003 21.8 6.84003 21.8Z" fill="white"/>
<path d="M33.83 23.88C31.6515 23.8662 29.5179 24.4995 27.6998 25.6997C25.8817 26.9 24.4609 28.613 23.6176 30.6218C22.7743 32.6305 22.5464 34.8444 22.9629 36.9828C23.3794 39.1212 24.4215 41.0877 25.9571 42.6331C27.4926 44.1785 29.4525 45.2331 31.5881 45.6632C33.7238 46.0934 35.9391 45.8797 37.9532 45.0492C39.9673 44.2187 41.6894 42.8089 42.9012 40.9985C44.113 39.1881 44.76 37.0586 44.76 34.88V34.81C44.7417 31.9169 43.5842 29.1474 41.5384 27.1016C39.4926 25.0558 36.7232 23.8984 33.83 23.88ZM37.21 33C36.4247 33.0002 35.6705 32.6924 35.1096 32.1427C34.5487 31.593 34.2257 30.8452 34.21 30.06V30C34.1939 29.2077 34.4919 28.4412 35.039 27.8679C35.5861 27.2945 36.3378 26.961 37.13 26.94H37.22C38.0263 26.94 38.7995 27.2603 39.3696 27.8304C39.9397 28.4005 40.26 29.1738 40.26 29.98C40.26 30.7863 39.9397 31.5595 39.3696 32.1296C38.7995 32.6997 38.0263 33.02 37.22 33.02L37.21 33Z" fill="white"/>
</g>
<defs>
<clipPath id="clip0">
<rect width="221.05" height="69.99" fill="white"/>
</clipPath>
</defs>
</svg>
